<?xml version="1.0" encoding="utf-8"?>
<svg version="1.1" xmlns:xlink="http://www.w3.org/1999/xlink" width="19px" height="10px" xmlns="http://www.w3.org/2000/svg">
  <g transform="matrix(1 0 0 1 -212 -128 )">
    <path d="M 17.27198202840457 0.3374373164906658  C 17.27198202840457 0.3374373164906658  9.499999999999998 7.49073725968309  9.499999999999998 7.49073725968309  C 9.499999999999998 7.49073725968309  1.7280179715953197 0.33743731649080355  1.7280179715953197 0.33743731649080355  C 1.3664801100025776 -0.07622158322690759  0.7420830272117682 -0.11491429030808031  0.33338805323736453 0.251014736365279  C -0.07530692073703982 0.6169437630386388  -0.11353531356099962 1.2489246453646978  0.2480025480317424 1.662583545082409  C 0.609540409624484 2.07624244480012  8.759992288217942 9.6625742732719  8.759992288217942 9.6625742732719  C 9.153205716869437 10.1124752422427  9.846794283130565 10.1124752422427  10.240007711782054 9.6625742732719  C 10.240007711782054 9.6625742732719  18.751997451968144 1.662583545082288  18.751997451968144 1.662583545082288  C 19.113535313560888 1.248924645364577  19.075306920737198 0.6169437630387381  18.66661194676279 0.2510147363653787  C 18.257916972788383 -0.11491429030798059  17.633519889997313 -0.07622158322704503  17.27198202840457 0.3374373164906658  Z " fill-rule="nonzero" fill="#000000" stroke="none" transform="matrix(1 0 0 1 212 128 )" />
  </g>
</svg>