<?xml version="1.0" encoding="utf-8"?>
<svg version="1.1" xmlns:xlink="http://www.w3.org/1999/xlink" width="14px" height="14px" xmlns="http://www.w3.org/2000/svg">
  <defs>
    <mask fill="white" id="clip15">
      <path d="M 0 7  C 0 10.8659932486  3.1340067514000003 14  7 14  C 10.8659932486 14  14 10.8659932486  14 7  C 14 3.1340067514000003  10.8659932486 0  7 0  C 3.1340067514000003 0  0 3.1340067514000003  0 7  Z " fill-rule="evenodd" />
    </mask>
  </defs>
  <g transform="matrix(1 0 0 1 -1138 -60 )">
    <path d="M 0 7  C 0 10.8659932486  3.1340067514000003 14  7 14  C 10.8659932486 14  14 10.8659932486  14 7  C 14 3.1340067514000003  10.8659932486 0  7 0  C 3.1340067514000003 0  0 3.1340067514000003  0 7  Z " fill-rule="nonzero" fill="#ffffff" stroke="none" fill-opacity="0" transform="matrix(1 0 0 1 1138 60 )" />
    <path d="M 0 7  C 0 10.8659932486  3.1340067514000003 14  7 14  C 10.8659932486 14  14 10.8659932486  14 7  C 14 3.1340067514000003  10.8659932486 0  7 0  C 3.1340067514000003 0  0 3.1340067514000003  0 7  Z " stroke-width="6" stroke="#000000" fill="none" transform="matrix(1 0 0 1 1138 60 )" mask="url(#clip15)" />
  </g>
</svg>