<?xml version="1.0" encoding="utf-8"?>
<svg version="1.1" xmlns:xlink="http://www.w3.org/1999/xlink" width="20px" height="9px" xmlns="http://www.w3.org/2000/svg">
  <g transform="matrix(1 0 0 1 -631 -123 )">
    <path d="M 19.88425925925926 4.201560468140442  C 19.96141975308642 4.279583875162548  20.000000000000004 4.36931079323797  20 4.47074122236671  C 20.000000000000004 4.579973992197659  19.96141975308642 4.673602080624186  19.88425925925926 4.751625487646294  L 15.439814814814813 8.894668400520155  C 15.31635802469136 9.003901170351103  15.181327160493828 9.027308192457737  15.034722222222223 8.964889466840052  C 14.888117283950619 8.894668400520155  14.814814814814813 8.7815344603381  14.814814814814813 8.62548764629389  L 14.814814814814813 6  L 0.37037037037037035 6  C 0.2623456790123457 6.003901170351106  0.1736111111111111 5.968790637191158  0.10416666666666666 5.8985695708712615  C 0.034722222222222224 5.828348504551365  0 5.738621586475942  0 5.629388816644993  L 0 3.382314694408322  C 0 3.2730819245773732  0.034722222222222224 3.1833550065019507  0.10416666666666666 3.113133940182055  C 0.1736111111111111 3.042912873862159  0.2623456790123457 3.0078023407022103  0.37037037037037035 3  L 14.814814814814813 3  L 14.814814814814813 0.38621586475942826  C 14.814814814814813 0.22236671001300412  14.888117283950619 0.10923276983094876  15.034722222222223 0.04681404421326418  C 15.181327160493828 -0.015604681404422394  15.31635802469136 0.003901170351104599  15.439814814814813 0.10533159947984416  L 19.88425925925926 4.201560468140442  Z " fill-rule="nonzero" fill="#000000" stroke="none" transform="matrix(1 0 0 1 631 123 )" />
  </g>
</svg>