<?xml version="1.0" encoding="utf-8"?>
<svg version="1.1" xmlns:xlink="http://www.w3.org/1999/xlink" width="20px" height="9px" xmlns="http://www.w3.org/2000/svg">
  <g transform="matrix(1 0 0 1 -631 -134 )">
    <path d="M 19.895833333333332 3.101430429128739  C 19.96527777777778 3.171651495448635  20 3.2613784135240564  20 3.370611183355006  L 20 5.617685305591678  C 20 5.726918075422626  19.96527777777778 5.816644993498049  19.895833333333332 5.886866059817946  C 19.82638888888889 5.957087126137841  19.737654320987655 5.99219765929779  19.62962962962963 6  L 5.185185185185185 6  L 5.185185185185185 8.613784135240572  C 5.185185185185185 8.777633289986996  5.111882716049383 8.890767230169049  4.965277777777778 8.953185955786736  C 4.818672839506173 9.01560468140442  4.6836419753086425 8.996098829648895  4.560185185185185 8.894668400520155  L 0.11574074074074073 4.798439531859558  C 0.038580246913580356 4.720416124837451  0 4.630689206762027  0 4.52925877763329  C 0 4.42002600780234  0.038580246913580356 4.326397919375812  0.11574074074074073 4.248374512353706  L 4.560185185185185 0.10533159947984416  C 4.6836419753086425 -0.003901170351107597  4.818672839506173 -0.02730819245773919  4.965277777777778 0.03511053315994839  C 5.111882716049383 0.10533159947984416  5.185185185185185 0.21846553966189852  5.185185185185185 0.37451235370611147  L 5.185185185185185 3  L 19.62962962962963 3  C 19.737654320987655 2.996098829648895  19.82638888888889 3.031209362808843  19.895833333333332 3.101430429128739  Z " fill-rule="nonzero" fill="#000000" stroke="none" transform="matrix(1 0 0 1 631 134 )" />
  </g>
</svg>