<?xml version="1.0" encoding="utf-8"?>
<svg version="1.1" xmlns:xlink="http://www.w3.org/1999/xlink" width="28px" height="14px" xmlns="http://www.w3.org/2000/svg">
  <g transform="matrix(1 0 0 1 -1214 -640 )">
    <path d="M 25.453447199754102 0.4724122430869321  C 25.453447199754102 0.4724122430869321  13.999999999999996 10.487032163556327  13.999999999999996 10.487032163556327  C 13.999999999999996 10.487032163556327  2.5465528002457343 0.47241224308712504  2.5465528002457343 0.47241224308712504  C 2.0137601621090617 -0.10671021651767061  1.0935960401015532 -0.16088000643131242  0.49130871003401094 0.3514206309113906  C -0.11097862003353236 0.8637212682540945  -0.16731519893199945 1.7484945035105772  0.365477439204673 2.3276169631153723  C 0.8982700773413449 2.9067394227201677  12.909462319479074 13.527603982580661  12.909462319479074 13.527603982580661  C 13.488934740649697 14.15746533913978  14.511065259350305 14.15746533913978  15.09053768052092 13.527603982580661  C 15.09053768052092 13.527603982580661  27.63452256079516 2.327616963115203  27.63452256079516 2.327616963115203  C 28.16731519893183 1.7484945035104078  28.110978620033766 0.8637212682542333  27.508691289966215 0.3514206309115302  C 26.906403959898668 -0.16088000643117284  25.98623983789078 -0.10671021651786303  25.453447199754102 0.4724122430869321  Z " fill-rule="nonzero" fill="#979797" stroke="none" transform="matrix(1 0 0 1 1214 640 )" />
  </g>
</svg>