<?xml version="1.0" encoding="utf-8"?>
<svg version="1.1" xmlns:xlink="http://www.w3.org/1999/xlink" width="17px" height="7px" xmlns="http://www.w3.org/2000/svg">
  <g transform="matrix(1 0 0 1 -774 -318 )">
    <path d="M 16.90162037037037 3.2678803641092324  C 16.96720679012346 3.3285652362375377  17.000000000000004 3.398352839185088  17 3.4772431729518853  C 17.000000000000004 3.562201993931512  16.96720679012346 3.635023840485478  16.90162037037037 3.695708712613784  L 13.123842592592592 6.918075422626788  C 13.018904320987655 7.003034243606414  12.904128086419753 7.0212397052449065  12.77951388888889 6.972691807542263  C 12.654899691358027 6.918075422626788  12.592592592592592 6.830082358040745  12.592592592592592 6.708712613784136  L 12.592592592592592 4.6697009102730815  L 0.31481481481481477 4.6697009102730815  C 0.22299382716049385 4.6697009102730815  0.14756944444444445 4.642392717815345  0.08854166666666666 4.587776332899869  C 0.029513888888888888 4.533159947984395  0 4.463372345036843  0 4.378413524057216  L 0 2.630689206762028  C 0 2.5457303857824014  0.029513888888888888 2.47594278283485  0.08854166666666666 2.4213263979193758  C 0.14756944444444445 2.3667100130039014  0.22299382716049385 2.339401820546164  0.31481481481481477 2.339401820546164  L 12.592592592592592 2.339401820546164  L 12.592592592592592 0.30039011703511087  C 12.592592592592592 0.17295188556566987  12.654899691358027 0.08495882097962681  12.77951388888889 0.036410923276983254  C 12.904128086419753 -0.012136974425661862  13.018904320987655 0.0030342436064146883  13.123842592592592 0.08192457737321213  L 16.90162037037037 3.2678803641092324  Z " fill-rule="nonzero" fill="#d1d1d1" stroke="none" transform="matrix(1 0 0 1 774 318 )" />
  </g>
</svg>